<?xml version="1.0" encoding="utf-8"?>
<!-- Generator: Adobe Illustrator 24.0.2, SVG Export Plug-In . SVG Version: 6.00 Build 0)  -->
<svg version="1.1" id="Слой_1" xmlns="http://www.w3.org/2000/svg" xmlns:xlink="http://www.w3.org/1999/xlink" x="0px" y="0px"
	 viewBox="0 0 120 120" style="enable-background:new 0 0 120 120;" xml:space="preserve">
<g>
	<path d="M113,33.6c-0.3,0.9-0.4,1.8-0.8,2.6c-0.8,1.5-1.6,3-2.8,4.2C90.3,59.6,71.1,78.8,51.9,98c-0.3,0.3-0.9,0.6-1.3,0.6
		c-8.7,0-17.4,0-26.1,0c-0.2,0-0.3,0-0.6,0c0-0.4-0.1-0.7-0.1-1.1c0-8.5,0-17,0-25.5c0-0.5,0.3-1.2,0.6-1.5
		C43.6,51.3,62.8,32.1,82,12.9c4.7-4.7,11.5-4.7,16.3,0c3.7,3.7,7.4,7.4,11.1,11.1c1.9,1.9,3.2,4.1,3.5,6.7c0,0.1,0.1,0.3,0.2,0.4
		C113,31.9,113,32.7,113,33.6z M79.1,22.6c-0.1,0.1-0.3,0.2-0.4,0.4c-16.5,16.5-33,33-49.5,49.5c-0.3,0.3-0.6,0.9-0.6,1.4
		c0,6.2,0,12.4,0,18.6c0,0.4,0,0.7,0,1.2c0.5,0,0.9,0,1.3,0c6.1,0,12.2,0,18.3,0c0.8,0,1.3-0.2,1.9-0.8c16.3-16.4,32.7-32.7,49-49.1
		c0.2-0.2,0.5-0.5,0.6-0.7C92.9,36.4,86.1,29.5,79.1,22.6z M103.4,39.6c1-1,2.1-1.9,3-3c2.4-2.7,2.3-6.3-0.2-8.8
		c-3.8-3.9-7.7-7.7-11.6-11.6c-2.2-2.2-5.7-2.6-8.1-0.8c-1.4,1-2.6,2.4-3.9,3.5C89.7,25.9,96.5,32.7,103.4,39.6z"/>
	<path d="M113,110.6c-35.3,0-70.6,0-106,0c0-1.6,0-3.1,0-4.8c0.4,0,0.8,0,1.2,0c34.6,0,69.1,0,103.7,0c0.4,0,0.8,0,1.1,0
		C113,107.5,113,109.1,113,110.6z"/>
</g>
</svg>
