<?xml version="1.0" encoding="utf-8"?>
<!-- Generator: Adobe Illustrator 24.0.2, SVG Export Plug-In . SVG Version: 6.00 Build 0)  -->
<svg version="1.1" id="Слой_1" xmlns="http://www.w3.org/2000/svg" xmlns:xlink="http://www.w3.org/1999/xlink" x="0px"
     y="0px"
     viewBox="0 0 340.2 340.2" style="enable-background:new 0 0 340.2 340.2;" xml:space="preserve">
<g>
	<path d="M38,162.5c-4.3,3.7-7.9,6.8-11.5,9.8c-5.7,4.7-12.9,4.4-17.4-0.6c-4.4-5-3.9-12,1.3-17.1c41.5-40,83-80.1,124.7-120.1
		c19.1-18.3,50.9-18.4,70.2,0c41.7,39.9,83.1,80,124.7,120.1c5.4,5.2,5.7,12.4,1,17.3c-4.5,4.8-11.7,5-17.2,0.3
		c-3.6-3-7.2-6.1-11.5-9.8c0,2,0,3.3,0,4.5c0,35.6,0,71.1,0,106.7c0,26.8-18.9,45.7-45.8,45.7c-57.5,0-115,0-172.5,0
		c-26.9,0-45.8-18.9-45.8-45.7c0-35.4,0-70.9,0-106.3C38,166.1,38,164.7,38,162.5z M230.1,295.5c9.4,0,18.1,0.1,26.8,0
		c13-0.1,21.2-8.4,21.2-21.5c0-42.9,0-85.8-0.1-128.8c0-1.8-0.9-4.2-2.2-5.5c-28.4-28.8-56.9-57.5-85.5-86.2
		c-11.7-11.8-28.8-11.8-40.4-0.1c-28.5,28.7-57,57.5-85.6,86.1c-1.8,1.8-2.3,3.5-2.3,5.9c0.1,23.6,0,47.2,0,70.7
		c0,19.7-0.1,39.4,0,59.1c0,9.9,6.9,18.9,16.2,19.6c10.4,0.8,20.9,0.2,31.8,0.2c0-1.4,0-2.7,0-4c0-23.1,0-46.2,0-69.2
		c0-22.8,15.3-38.1,38-38.1c14.6,0,29.3,0,43.9,0c22.8,0,38.1,15.3,38.1,38c0,23.1,0,46.2,0,69.2
		C230.1,292.3,230.1,293.7,230.1,295.5z M206.1,295.3c0-1.4,0-2.6,0-3.8c0-23.4,0-46.9,0-70.3c0-8.8-4.8-13.5-13.8-13.5
		c-14.7,0-29.5,0-44.2,0c-9.4,0-14,4.6-14,14c0,23.2,0,46.4,0,69.6c0,1.3,0,2.7,0,4.1C158.3,295.3,182,295.3,206.1,295.3z"/>
</g>
</svg>
