<?xml version="1.0" encoding="utf-8"?>
<!-- Generator: Adobe Illustrator 24.0.2, SVG Export Plug-In . SVG Version: 6.00 Build 0)  -->
<svg version="1.1" id="Слой_1" xmlns="http://www.w3.org/2000/svg" xmlns:xlink="http://www.w3.org/1999/xlink" x="0px" y="0px"
	 viewBox="0 0 340.2 340.2" style="enable-background:new 0 0 340.2 340.2;" xml:space="preserve">
<style type="text/css">
	.st0{fill:#FFFFFF;}
</style>
<g>
	<path d="M19.5,33.6c1.4-3.6,2.9-7,6-9.4c5.8-4.5,13.8-4.6,19.5,0c1.2,1,2.4,2.1,3.5,3.2c39.4,39.4,78.9,78.8,118.3,118.3
		c0.9,0.9,1.7,1.9,3.9,3.7c0.6-1.1,1-2.5,1.8-3.4c39.7-39.7,79.4-79.4,119.1-119.1c4.9-4.9,10.3-7.3,17.2-5.3
		c10.7,3.1,14.7,16.2,7.7,24.9c-1,1.2-2.1,2.3-3.2,3.5c-39.5,39.5-79,79-118.5,118.5c-0.8,0.8-1.9,1.4-2.8,2.1
		c-0.1,0.5-0.2,1-0.4,1.4c1.1,0.7,2.4,1.1,3.2,2c39.7,39.6,79.3,79.2,118.9,118.8c4.3,4.3,7.1,9.2,5.9,15.4
		c-1.1,6.2-4.8,10.3-10.8,12.4c-0.6,0.2-1.2,0.5-1.8,0.8c-2,0-3.9,0-5.9,0c-5-1.5-8.7-5-12.3-8.6c-38.8-38.9-77.7-77.7-116.6-116.6
		c-0.8-0.8-1.3-2-1.9-2.9c-0.5,0-1,0-1.5,0c-0.6,1-1.1,2.1-1.9,2.9c-38.8,38.9-77.7,77.7-116.6,116.6c-3.6,3.6-7.2,7.1-12.3,8.6
		c-2,0-3.9,0-5.9,0c-1.2-0.5-2.5-1-3.7-1.5c-5-2.2-7.5-6.5-9.2-11.4c0-2,0-3.9,0-5.9c1.5-5,5-8.6,8.6-12.3
		c38.8-38.8,77.6-77.6,116.5-116.3c0.9-0.9,2.1-1.4,3.1-2.2c0-0.5,0-1,0-1.4c-1.1-0.7-2.3-1.3-3.1-2.2
		C105.7,129.3,66.9,90.5,28.1,51.7c-3.6-3.6-7.1-7.2-8.6-12.3C19.5,37.5,19.5,35.5,19.5,33.6z"/>
	<path class="st0" d="M19.5,308.3c1.7,4.9,4.2,9.2,9.2,11.4c1.2,0.5,2.5,1,3.7,1.5c-4.3,0-8.6,0-12.9,0
		C19.5,316.9,19.5,312.6,19.5,308.3z"/>
</g>
</svg>
